<?xml version="1.0" standalone="no"?>
<!DOCTYPE svg PUBLIC "-//W3C//DTD SVG 20010904//EN"
 "http://www.w3.org/TR/2001/REC-SVG-20010904/DTD/svg10.dtd">
<svg version="1.0" xmlns="http://www.w3.org/2000/svg"
 width="512.000000pt" height="512.000000pt" viewBox="0 0 512.000000 512.000000"
 preserveAspectRatio="xMidYMid meet">
<metadata>
Created by potrace 1.11, written by Peter Selinger 2001-2013
</metadata>
<g transform="translate(0.000000,512.000000) scale(0.100000,-0.100000)"
fill="#000000" stroke="none">
<path d="M1397 4716 c-45 -16 -102 -59 -123 -91 -15 -22 -17 -23 -138 -18
-226 10 -570 -52 -744 -135 -81 -38 -163 -118 -203 -199 -31 -63 -33 -75 -34
-168 0 -94 2 -105 33 -168 49 -100 38 -97 389 -97 344 0 333 3 359 -88 33
-111 4 -292 -110 -687 -133 -465 -159 -709 -95 -879 65 -176 233 -328 451
-410 87 -33 247 -73 325 -82 35 -3 69 -12 77 -18 16 -12 53 -119 90 -260 65
-241 112 -545 122 -785 6 -165 17 -213 59 -257 28 -29 39 -34 78 -34 56 0 97
31 123 92 16 38 19 91 25 458 4 228 11 428 16 444 7 24 13 6 36 -115 57 -300
97 -647 97 -840 0 -133 17 -196 65 -238 62 -54 134 -36 182 47 l28 47 6 435
c6 381 15 561 35 690 8 52 35 193 40 211 4 15 51 16 517 14 l512 -2 68 -104
c113 -174 179 -288 195 -338 14 -46 14 -54 -11 -168 -15 -65 -47 -192 -71
-281 -24 -89 -50 -201 -57 -249 -11 -82 -11 -91 9 -135 58 -132 167 -91 266
102 81 156 168 442 197 648 13 93 21 110 34 70 30 -99 25 -143 -45 -438 -59
-250 -77 -368 -61 -419 19 -65 51 -96 100 -96 35 0 47 7 87 45 90 88 233 434
270 655 26 153 16 269 -35 420 -57 165 -57 244 0 515 55 267 85 428 100 538
l12 94 30 -48 c67 -109 119 -269 136 -422 10 -91 26 -124 73 -148 44 -23 120
-14 155 17 46 43 55 79 43 177 -29 236 -119 466 -248 636 -72 96 -200 217
-289 275 -81 52 -83 55 -136 155 -226 426 -582 845 -885 1041 -172 111 -328
156 -474 138 -102 -13 -171 -39 -279 -104 -221 -134 -468 -399 -718 -769 -135
-200 -325 -506 -385 -620 -27 -52 -50 -96 -51 -98 -7 -9 -100 45 -135 79 -89
87 -122 224 -103 431 7 68 35 239 63 381 83 427 98 560 81 706 -7 52 -21 117
-33 144 l-22 50 21 36 c12 20 26 56 33 79 28 105 -50 176 -153 138z"/>
</g>
</svg>
